<?xml version="1.0" encoding="UTF-8"?>
<!--Generator: Apple Native CoreSVG 123-->
<!DOCTYPE svg
PUBLIC "-//W3C//DTD SVG 1.1//EN"
       "http://www.w3.org/Graphics/SVG/1.1/DTD/svg11.dtd">
<svg version="1.1" xmlns="http://www.w3.org/2000/svg" xmlns:xlink="http://www.w3.org/1999/xlink" width="3300" height="2200">
 <!--glyph: "uni100308.medium", point size: 100.000000, font version: "Version 15.0d7e11", template writer version: "5"-->
 <g id="Notes">
  <rect height="2200" id="artboard" style="fill:white;opacity:1" width="3300" x="0" y="0"/>
  <line id="" style="fill:none;stroke:black;opacity:1;stroke-width:0.5;" x1="263" x2="3036" y1="292" y2="292"/>
  <text style="stroke:none;fill:black;font-family:-apple-system,&quot;SF Pro Display&quot;,&quot;SF Pro Text&quot;,Helvetica,sans-serif;font-weight:bold;" transform="matrix(1 0 0 1 263 322)">Weight/Scale Variations</text>
  <text style="stroke:none;fill:black;font-family:-apple-system,&quot;SF Pro Display&quot;,&quot;SF Pro Text&quot;,Helvetica,sans-serif;text-anchor:middle;" transform="matrix(1 0 0 1 559.711 322)">Ultralight</text>
  <text style="stroke:none;fill:black;font-family:-apple-system,&quot;SF Pro Display&quot;,&quot;SF Pro Text&quot;,Helvetica,sans-serif;text-anchor:middle;" transform="matrix(1 0 0 1 856.422 322)">Thin</text>
  <text style="stroke:none;fill:black;font-family:-apple-system,&quot;SF Pro Display&quot;,&quot;SF Pro Text&quot;,Helvetica,sans-serif;text-anchor:middle;" transform="matrix(1 0 0 1 1153.13 322)">Light</text>
  <text style="stroke:none;fill:black;font-family:-apple-system,&quot;SF Pro Display&quot;,&quot;SF Pro Text&quot;,Helvetica,sans-serif;text-anchor:middle;" transform="matrix(1 0 0 1 1449.84 322)">Regular</text>
  <text style="stroke:none;fill:black;font-family:-apple-system,&quot;SF Pro Display&quot;,&quot;SF Pro Text&quot;,Helvetica,sans-serif;text-anchor:middle;" transform="matrix(1 0 0 1 1746.56 322)">Medium</text>
  <text style="stroke:none;fill:black;font-family:-apple-system,&quot;SF Pro Display&quot;,&quot;SF Pro Text&quot;,Helvetica,sans-serif;text-anchor:middle;" transform="matrix(1 0 0 1 2043.27 322)">Semibold</text>
  <text style="stroke:none;fill:black;font-family:-apple-system,&quot;SF Pro Display&quot;,&quot;SF Pro Text&quot;,Helvetica,sans-serif;text-anchor:middle;" transform="matrix(1 0 0 1 2339.98 322)">Bold</text>
  <text style="stroke:none;fill:black;font-family:-apple-system,&quot;SF Pro Display&quot;,&quot;SF Pro Text&quot;,Helvetica,sans-serif;text-anchor:middle;" transform="matrix(1 0 0 1 2636.69 322)">Heavy</text>
  <text style="stroke:none;fill:black;font-family:-apple-system,&quot;SF Pro Display&quot;,&quot;SF Pro Text&quot;,Helvetica,sans-serif;text-anchor:middle;" transform="matrix(1 0 0 1 2933.4 322)">Black</text>
  <line id="" style="fill:none;stroke:black;opacity:1;stroke-width:0.5;" x1="263" x2="3036" y1="1903" y2="1903"/>
  <g id="" transform="matrix(1 0 0 1 263 1933)">
   <path d="M 9.24805 0.830078 C 13.5547 0.830078 17.1387 -2.74414 17.1387 -7.05078 C 17.1387 -11.3574 13.5449 -14.9316 9.23828 -14.9316 C 4.94141 -14.9316 1.36719 -11.3574 1.36719 -7.05078 C 1.36719 -2.74414 4.95117 0.830078 9.24805 0.830078 Z M 9.24805 -0.654297 C 5.70312 -0.654297 2.87109 -3.49609 2.87109 -7.05078 C 2.87109 -10.6055 5.69336 -13.4473 9.23828 -13.4473 C 12.793 -13.4473 15.6348 -10.6055 15.6445 -7.05078 C 15.6543 -3.49609 12.8027 -0.654297 9.24805 -0.654297 Z M 9.22852 -3.42773 C 9.69727 -3.42773 9.9707 -3.74023 9.9707 -4.25781 L 9.9707 -6.31836 L 12.1973 -6.31836 C 12.6953 -6.31836 13.0371 -6.57227 13.0371 -7.04102 C 13.0371 -7.51953 12.7148 -7.7832 12.1973 -7.7832 L 9.9707 -7.7832 L 9.9707 -10.0098 C 9.9707 -10.5273 9.69727 -10.8496 9.22852 -10.8496 C 8.75977 -10.8496 8.50586 -10.5078 8.50586 -10.0098 L 8.50586 -7.7832 L 6.29883 -7.7832 C 5.78125 -7.7832 5.44922 -7.51953 5.44922 -7.04102 C 5.44922 -6.57227 5.80078 -6.31836 6.29883 -6.31836 L 8.50586 -6.31836 L 8.50586 -4.25781 C 8.50586 -3.75977 8.75977 -3.42773 9.22852 -3.42773 Z"/>
  </g>
  <g id="" transform="matrix(1 0 0 1 281.506 1933)">
   <path d="M 11.709 2.91016 C 17.1582 2.91016 21.6699 -1.60156 21.6699 -7.05078 C 21.6699 -12.4902 17.1484 -17.0117 11.6992 -17.0117 C 6.25977 -17.0117 1.74805 -12.4902 1.74805 -7.05078 C 1.74805 -1.60156 6.26953 2.91016 11.709 2.91016 Z M 11.709 1.25 C 7.09961 1.25 3.41797 -2.44141 3.41797 -7.05078 C 3.41797 -11.6504 7.08984 -15.3516 11.6992 -15.3516 C 16.3086 -15.3516 20 -11.6504 20.0098 -7.05078 C 20.0195 -2.44141 16.3184 1.25 11.709 1.25 Z M 11.6895 -2.41211 C 12.207 -2.41211 12.5195 -2.77344 12.5195 -3.33984 L 12.5195 -6.23047 L 15.5762 -6.23047 C 16.123 -6.23047 16.5039 -6.51367 16.5039 -7.03125 C 16.5039 -7.55859 16.1426 -7.86133 15.5762 -7.86133 L 12.5195 -7.86133 L 12.5195 -10.9277 C 12.5195 -11.5039 12.207 -11.8555 11.6895 -11.8555 C 11.1719 -11.8555 10.8789 -11.4844 10.8789 -10.9277 L 10.8789 -7.86133 L 7.83203 -7.86133 C 7.26562 -7.86133 6.89453 -7.55859 6.89453 -7.03125 C 6.89453 -6.51367 7.28516 -6.23047 7.83203 -6.23047 L 10.8789 -6.23047 L 10.8789 -3.33984 C 10.8789 -2.79297 11.1719 -2.41211 11.6895 -2.41211 Z"/>
  </g>
  <g id="" transform="matrix(1 0 0 1 304.924 1933)">
   <path d="M 14.9707 5.67383 C 21.9336 5.67383 27.6953 -0.078125 27.6953 -7.04102 C 27.6953 -14.0039 21.9238 -19.7559 14.9609 -19.7559 C 8.00781 -19.7559 2.25586 -14.0039 2.25586 -7.04102 C 2.25586 -0.078125 8.01758 5.67383 14.9707 5.67383 Z M 14.9707 3.85742 C 8.93555 3.85742 4.08203 -1.00586 4.08203 -7.04102 C 4.08203 -13.0762 8.92578 -17.9395 14.9609 -17.9395 C 21.0059 -17.9395 25.8594 -13.0762 25.8691 -7.04102 C 25.8789 -1.00586 21.0156 3.85742 14.9707 3.85742 Z M 14.9512 -1.06445 C 15.5176 -1.06445 15.8691 -1.45508 15.8691 -2.06055 L 15.8691 -6.13281 L 20.1074 -6.13281 C 20.6934 -6.13281 21.1133 -6.46484 21.1133 -7.02148 C 21.1133 -7.59766 20.7227 -7.93945 20.1074 -7.93945 L 15.8691 -7.93945 L 15.8691 -12.1875 C 15.8691 -12.8027 15.5176 -13.1934 14.9512 -13.1934 C 14.3848 -13.1934 14.0625 -12.7832 14.0625 -12.1875 L 14.0625 -7.93945 L 9.83398 -7.93945 C 9.21875 -7.93945 8.80859 -7.59766 8.80859 -7.02148 C 8.80859 -6.46484 9.23828 -6.13281 9.83398 -6.13281 L 14.0625 -6.13281 L 14.0625 -2.06055 C 14.0625 -1.47461 14.3848 -1.06445 14.9512 -1.06445 Z"/>
  </g>
  <text style="stroke:none;fill:black;font-family:-apple-system,&quot;SF Pro Display&quot;,&quot;SF Pro Text&quot;,Helvetica,sans-serif;font-weight:bold;" transform="matrix(1 0 0 1 263 1953)">Design Variations</text>
  <text style="stroke:none;fill:black;font-family:-apple-system,&quot;SF Pro Display&quot;,&quot;SF Pro Text&quot;,Helvetica,sans-serif;" transform="matrix(1 0 0 1 263 1971)">Symbols are supported in up to nine weights and three scales.</text>
  <text style="stroke:none;fill:black;font-family:-apple-system,&quot;SF Pro Display&quot;,&quot;SF Pro Text&quot;,Helvetica,sans-serif;" transform="matrix(1 0 0 1 263 1989)">For optimal layout with text and other symbols, vertically align</text>
  <text style="stroke:none;fill:black;font-family:-apple-system,&quot;SF Pro Display&quot;,&quot;SF Pro Text&quot;,Helvetica,sans-serif;" transform="matrix(1 0 0 1 263 2007)">symbols with the adjacent text.</text>
  <rect height="14" id="" style="fill:#00AEEF;stroke:none;opacity:0.4;" width="3" x="776" y="1919"/>
  <g id="" transform="matrix(1 0 0 1 779 1933)">
   <path d="M 10.5273 0 L 12.373 0 L 7.17773 -14.0918 L 5.43945 -14.0918 L 0.244141 0 L 2.08984 0 L 3.50586 -4.0332 L 9.11133 -4.0332 Z M 6.2793 -11.9531 L 6.33789 -11.9531 L 8.59375 -5.52734 L 4.02344 -5.52734 Z"/>
  </g>
  <rect height="14" id="" style="fill:#00AEEF;stroke:none;opacity:0.4;" width="3" x="791.617" y="1919"/>
  <text style="stroke:none;fill:black;font-family:-apple-system,&quot;SF Pro Display&quot;,&quot;SF Pro Text&quot;,Helvetica,sans-serif;font-weight:bold;" transform="matrix(1 0 0 1 776 1953)">Margins</text>
  <text style="stroke:none;fill:black;font-family:-apple-system,&quot;SF Pro Display&quot;,&quot;SF Pro Text&quot;,Helvetica,sans-serif;" transform="matrix(1 0 0 1 776 1971)">Leading and trailing margins on the left and right side of each symbol</text>
  <text style="stroke:none;fill:black;font-family:-apple-system,&quot;SF Pro Display&quot;,&quot;SF Pro Text&quot;,Helvetica,sans-serif;" transform="matrix(1 0 0 1 776 1989)">can be adjusted by modifying the width of the blue rectangles.</text>
  <text style="stroke:none;fill:black;font-family:-apple-system,&quot;SF Pro Display&quot;,&quot;SF Pro Text&quot;,Helvetica,sans-serif;" transform="matrix(1 0 0 1 776 2007)">Modifications are automatically applied proportionally to all</text>
  <text style="stroke:none;fill:black;font-family:-apple-system,&quot;SF Pro Display&quot;,&quot;SF Pro Text&quot;,Helvetica,sans-serif;" transform="matrix(1 0 0 1 776 2025)">scales and weights.</text>
  <g id="" transform="matrix(1 0 0 1 1289 1933)">
   <path d="M 2.83203 3.11523 L 4.375 4.6582 C 5.22461 5.48828 6.19141 5.41992 7.06055 4.46289 L 17.2754 -6.66016 C 17.7051 -6.36719 18.0957 -6.37695 18.5645 -6.47461 L 19.6094 -6.68945 L 20.3027 -5.99609 L 20.2539 -5.47852 C 20.1855 -4.95117 20.3516 -4.53125 20.8496 -4.0332 L 21.6602 -3.22266 C 22.168 -2.71484 22.8223 -2.68555 23.3008 -3.16406 L 26.5527 -6.41602 C 27.0312 -6.89453 27.0117 -7.54883 26.5039 -8.05664 L 25.6836 -8.87695 C 25.1855 -9.375 24.7754 -9.55078 24.2383 -9.47266 L 23.7109 -9.41406 L 23.0566 -10.0781 L 23.3398 -11.2207 C 23.4863 -11.7871 23.3398 -12.2559 22.7148 -12.8613 L 20.3027 -15.2539 C 16.7578 -18.7793 12.2266 -18.6719 9.11133 -15.5371 C 8.69141 -15.1074 8.64258 -14.5215 8.91602 -14.0918 C 9.15039 -13.7207 9.62891 -13.4961 10.2734 -13.6621 C 11.7871 -14.043 13.3008 -13.9258 14.7852 -12.9199 L 14.1602 -11.3379 C 13.9258 -10.752 13.9453 -10.2734 14.1797 -9.83398 L 3.01758 0.439453 C 2.08008 1.30859 1.97266 2.25586 2.83203 3.11523 Z M 10.6738 -15.1465 C 13.3398 -17.1387 16.6504 -16.8262 19.0527 -14.4141 L 21.6797 -11.8066 C 21.9141 -11.5723 21.9434 -11.3867 21.8848 -11.0938 L 21.5039 -9.53125 L 23.0762 -7.95898 L 24.043 -8.04688 C 24.3262 -8.07617 24.4141 -8.05664 24.6387 -7.83203 L 25.2637 -7.20703 L 22.5098 -4.46289 L 21.8848 -5.07812 C 21.6602 -5.30273 21.6406 -5.40039 21.6699 -5.68359 L 21.7578 -6.64062 L 20.1953 -8.20312 L 18.5742 -7.89062 C 18.291 -7.83203 18.1445 -7.83203 17.9102 -8.07617 L 15.7324 -10.2539 C 15.5078 -10.4883 15.4785 -10.625 15.6055 -10.9473 L 16.5527 -13.2227 C 14.9512 -14.7559 12.8418 -15.6055 10.8008 -14.9512 C 10.7129 -14.9219 10.6445 -14.9414 10.6152 -14.9805 C 10.5859 -15.0293 10.5859 -15.0781 10.6738 -15.1465 Z M 4.10156 2.41211 C 3.61328 1.91406 3.78906 1.61133 4.12109 1.30859 L 15.0781 -8.80859 L 16.3086 -7.57812 L 6.15234 3.34961 C 5.84961 3.68164 5.46875 3.7793 5.06836 3.37891 Z"/>
  </g>
  <text style="stroke:none;fill:black;font-family:-apple-system,&quot;SF Pro Display&quot;,&quot;SF Pro Text&quot;,Helvetica,sans-serif;font-weight:bold;" transform="matrix(1 0 0 1 1289 1953)">Exporting</text>
  <text style="stroke:none;fill:black;font-family:-apple-system,&quot;SF Pro Display&quot;,&quot;SF Pro Text&quot;,Helvetica,sans-serif;" transform="matrix(1 0 0 1 1289 1971)">Symbols should be outlined when exporting to ensure the</text>
  <text style="stroke:none;fill:black;font-family:-apple-system,&quot;SF Pro Display&quot;,&quot;SF Pro Text&quot;,Helvetica,sans-serif;" transform="matrix(1 0 0 1 1289 1989)">design is preserved when submitting to Xcode.</text>
  <text id="template-version" style="stroke:none;fill:black;font-family:-apple-system,&quot;SF Pro Display&quot;,&quot;SF Pro Text&quot;,Helvetica,sans-serif;text-anchor:end;" transform="matrix(1 0 0 1 3036 1933)">Template v.1.0</text>
  <text style="stroke:none;fill:black;font-family:-apple-system,&quot;SF Pro Display&quot;,&quot;SF Pro Text&quot;,Helvetica,sans-serif;text-anchor:end;" transform="matrix(1 0 0 1 3036 1951)">Generated from line.horizontal.3.decrease.circle</text>
  <text style="stroke:none;fill:black;font-family:-apple-system,&quot;SF Pro Display&quot;,&quot;SF Pro Text&quot;,Helvetica,sans-serif;text-anchor:end;" transform="matrix(1 0 0 1 3036 1969)">Typeset at 100 points</text>
  <text style="stroke:none;fill:black;font-family:-apple-system,&quot;SF Pro Display&quot;,&quot;SF Pro Text&quot;,Helvetica,sans-serif;" transform="matrix(1 0 0 1 263 726)">Small</text>
  <text style="stroke:none;fill:black;font-family:-apple-system,&quot;SF Pro Display&quot;,&quot;SF Pro Text&quot;,Helvetica,sans-serif;" transform="matrix(1 0 0 1 263 1156)">Medium</text>
  <text style="stroke:none;fill:black;font-family:-apple-system,&quot;SF Pro Display&quot;,&quot;SF Pro Text&quot;,Helvetica,sans-serif;" transform="matrix(1 0 0 1 263 1586)">Large</text>
 </g>
 <g id="Guides">
  <g id="H-reference" style="fill:#27AAE1;stroke:none;" transform="matrix(1 0 0 1 339 696)">
   <path d="M 54.9316 0 L 57.666 0 L 30.5664 -70.459 L 28.0762 -70.459 L 0.976562 0 L 3.66211 0 L 12.9395 -24.4629 L 45.7031 -24.4629 Z M 29.1992 -67.0898 L 29.4434 -67.0898 L 44.8242 -26.709 L 13.8184 -26.709 Z"/>
  </g>
  <line id="Baseline-S" style="fill:none;stroke:#27AAE1;opacity:1;stroke-width:0.577;" x1="263" x2="3036" y1="696" y2="696"/>
  <line id="Capline-S" style="fill:none;stroke:#27AAE1;opacity:1;stroke-width:0.577;" x1="263" x2="3036" y1="625.541" y2="625.541"/>
  <g id="H-reference" style="fill:#27AAE1;stroke:none;" transform="matrix(1 0 0 1 339 1126)">
   <path d="M 54.9316 0 L 57.666 0 L 30.5664 -70.459 L 28.0762 -70.459 L 0.976562 0 L 3.66211 0 L 12.9395 -24.4629 L 45.7031 -24.4629 Z M 29.1992 -67.0898 L 29.4434 -67.0898 L 44.8242 -26.709 L 13.8184 -26.709 Z"/>
  </g>
  <line id="Baseline-M" style="fill:none;stroke:#27AAE1;opacity:1;stroke-width:0.577;" x1="263" x2="3036" y1="1126" y2="1126"/>
  <line id="Capline-M" style="fill:none;stroke:#27AAE1;opacity:1;stroke-width:0.577;" x1="263" x2="3036" y1="1055.54" y2="1055.54"/>
  <g id="H-reference" style="fill:#27AAE1;stroke:none;" transform="matrix(1 0 0 1 339 1556)">
   <path d="M 54.9316 0 L 57.666 0 L 30.5664 -70.459 L 28.0762 -70.459 L 0.976562 0 L 3.66211 0 L 12.9395 -24.4629 L 45.7031 -24.4629 Z M 29.1992 -67.0898 L 29.4434 -67.0898 L 44.8242 -26.709 L 13.8184 -26.709 Z"/>
  </g>
  <line id="Baseline-L" style="fill:none;stroke:#27AAE1;opacity:1;stroke-width:0.577;" x1="263" x2="3036" y1="1556" y2="1556"/>
  <line id="Capline-L" style="fill:none;stroke:#27AAE1;opacity:1;stroke-width:0.577;" x1="263" x2="3036" y1="1485.54" y2="1485.54"/>
  <rect height="119.336" id="left-margin" style="fill:#00AEEF;stroke:none;opacity:0.4;" width="8.74023" x="1391.3" y="1030.79"/>
  <rect height="119.336" id="right-margin" style="fill:#00AEEF;stroke:none;opacity:0.4;" width="8.74023" x="1499.65" y="1030.79"/>
 </g>
 <g id="Symbols">
  <g id="Black-L" transform="matrix(1 0 0 1 2854.05 1556)">
   <path d="M 79.3457 32.8613 C 116.748 32.8613 147.412 2.19727 147.412 -35.2051 C 147.412 -72.6074 116.748 -103.271 79.2969 -103.271 C 41.8945 -103.271 11.2793 -72.6074 11.2793 -35.2051 C 11.2793 2.19727 41.9434 32.8613 79.3457 32.8613 Z M 79.3457 12.4023 C 52.9785 12.4023 31.7383 -8.83789 31.7383 -35.2051 C 31.7383 -61.5723 52.9297 -82.8125 79.2969 -82.8125 C 105.664 -82.8125 126.953 -61.5723 126.953 -35.2051 C 127.002 -8.83789 105.713 12.4023 79.3457 12.4023 Z M 50.8789 -44.9219 L 107.861 -44.9219 C 112.256 -44.9219 115.234 -47.6562 115.234 -51.709 C 115.234 -55.8594 112.256 -58.5938 107.861 -58.5938 L 50.8789 -58.5938 C 46.4355 -58.5938 43.457 -55.8594 43.457 -51.709 C 43.457 -47.6562 46.4355 -44.9219 50.8789 -44.9219 Z M 57.5684 -24.9023 L 101.123 -24.9023 C 105.469 -24.9023 108.496 -27.6367 108.496 -31.6895 C 108.496 -35.7422 105.469 -38.5742 101.123 -38.5742 L 57.5684 -38.5742 C 53.2227 -38.5742 50.1953 -35.7422 50.1953 -31.6895 C 50.1953 -27.6367 53.2227 -24.9023 57.5684 -24.9023 Z M 64.4043 -4.83398 L 94.2871 -4.83398 C 98.6328 -4.83398 101.66 -7.56836 101.66 -11.6699 C 101.66 -15.7227 98.6328 -18.5059 94.2871 -18.5059 L 64.4043 -18.5059 C 60.0586 -18.5059 57.0312 -15.7227 57.0312 -11.6699 C 57.0312 -7.56836 60.0586 -4.83398 64.4043 -4.83398 Z"/>
  </g>
  <g id="Heavy-L" transform="matrix(1 0 0 1 2558.39 1556)">
   <path d="M 78.2715 31.7871 C 115.088 31.7871 145.312 1.61133 145.312 -35.2051 C 145.312 -72.0215 115.039 -102.197 78.2715 -102.197 C 41.4551 -102.197 11.2793 -72.0215 11.2793 -35.2051 C 11.2793 1.61133 41.5039 31.7871 78.2715 31.7871 Z M 78.2715 14.0137 C 51.0254 14.0137 29.0527 -7.95898 29.0527 -35.2051 C 29.0527 -62.5 50.9766 -84.4727 78.2715 -84.4727 C 105.518 -84.4727 127.49 -62.5 127.539 -35.2051 C 127.539 -7.95898 105.566 14.0137 78.2715 14.0137 Z M 48.3398 -45.7031 L 108.252 -45.7031 C 112.207 -45.7031 114.893 -48.1445 114.893 -51.8066 C 114.893 -55.5176 112.207 -57.959 108.252 -57.959 L 48.3398 -57.959 C 44.4336 -57.959 41.748 -55.5176 41.748 -51.8066 C 41.748 -48.1445 44.4336 -45.7031 48.3398 -45.7031 Z M 55.6641 -25.4883 L 100.928 -25.4883 C 104.834 -25.4883 107.568 -27.9297 107.568 -31.5918 C 107.568 -35.2539 104.834 -37.7441 100.928 -37.7441 L 55.6641 -37.7441 C 51.7578 -37.7441 49.0723 -35.2539 49.0723 -31.5918 C 49.0723 -27.9297 51.7578 -25.4883 55.6641 -25.4883 Z M 63.1836 -5.22461 L 93.457 -5.22461 C 97.3145 -5.22461 100.049 -7.71484 100.049 -11.3281 C 100.049 -14.9902 97.3145 -17.4805 93.457 -17.4805 L 63.1836 -17.4805 C 59.2773 -17.4805 56.543 -14.9902 56.543 -11.3281 C 56.543 -7.71484 59.2773 -5.22461 63.1836 -5.22461 Z"/>
  </g>
  <g id="Bold-L" transform="matrix(1 0 0 1 2262.88 1556)">
   <path d="M 77.0996 30.6152 C 113.232 30.6152 142.92 0.878906 142.92 -35.2051 C 142.92 -71.3379 113.184 -101.025 77.0508 -101.025 C 40.9668 -101.025 11.2793 -71.3379 11.2793 -35.2051 C 11.2793 0.878906 41.0156 30.6152 77.0996 30.6152 Z M 77.0996 15.8691 C 48.8281 15.8691 26.0742 -6.93359 26.0742 -35.2051 C 26.0742 -63.4766 48.7793 -86.2793 77.0508 -86.2793 C 105.371 -86.2793 128.125 -63.4766 128.174 -35.2051 C 128.174 -6.93359 105.371 15.8691 77.0996 15.8691 Z M 45.5078 -46.582 L 108.74 -46.582 C 112.109 -46.582 114.453 -48.6816 114.453 -51.9043 C 114.453 -55.127 112.109 -57.2266 108.74 -57.2266 L 45.5078 -57.2266 C 42.1387 -57.2266 39.7949 -55.127 39.7949 -51.9043 C 39.7949 -48.6816 42.1387 -46.582 45.5078 -46.582 Z M 53.5156 -26.1719 L 100.732 -26.1719 C 104.102 -26.1719 106.494 -28.2715 106.494 -31.4453 C 106.494 -34.668 104.102 -36.8164 100.732 -36.8164 L 53.5156 -36.8164 C 50.1465 -36.8164 47.8027 -34.668 47.8027 -31.4453 C 47.8027 -28.2715 50.1465 -26.1719 53.5156 -26.1719 Z M 61.8164 -5.66406 L 92.4805 -5.66406 C 95.8496 -5.66406 98.1934 -7.8125 98.1934 -10.9863 C 98.1934 -14.1602 95.8496 -16.3574 92.4805 -16.3574 L 61.8164 -16.3574 C 58.3984 -16.3574 56.0547 -14.1602 56.0547 -10.9863 C 56.0547 -7.8125 58.3984 -5.66406 61.8164 -5.66406 Z"/>
  </g>
  <g id="Semibold-L" transform="matrix(1 0 0 1 1966.97 1556)">
   <path d="M 76.2695 29.7852 C 111.914 29.7852 141.309 0.439453 141.309 -35.2051 C 141.309 -70.8496 111.865 -100.244 76.2695 -100.244 C 40.625 -100.244 11.2793 -70.8496 11.2793 -35.2051 C 11.2793 0.439453 40.6738 29.7852 76.2695 29.7852 Z M 76.2695 17.0898 C 47.3145 17.0898 24.0234 -6.25 24.0234 -35.2051 C 24.0234 -64.209 47.2656 -87.5 76.2695 -87.5 C 105.225 -87.5 128.564 -64.209 128.613 -35.2051 C 128.662 -6.25 105.273 17.0898 76.2695 17.0898 Z M 43.6035 -47.168 L 109.082 -47.168 C 112.109 -47.168 114.209 -49.0723 114.209 -51.9531 C 114.209 -54.834 112.109 -56.7383 109.082 -56.7383 L 43.6035 -56.7383 C 40.5762 -56.7383 38.4277 -54.834 38.4277 -51.9531 C 38.4277 -49.0723 40.5762 -47.168 43.6035 -47.168 Z M 52.0508 -26.6113 L 100.586 -26.6113 C 103.613 -26.6113 105.713 -28.5156 105.713 -31.3965 C 105.713 -34.2285 103.613 -36.1816 100.586 -36.1816 L 52.0508 -36.1816 C 49.0234 -36.1816 46.9238 -34.2285 46.9238 -31.3965 C 46.9238 -28.5156 49.0234 -26.6113 52.0508 -26.6113 Z M 60.8398 -5.95703 L 91.8457 -5.95703 C 94.8242 -5.95703 96.9727 -7.91016 96.9727 -10.7422 C 96.9727 -13.623 94.8242 -15.5273 91.8457 -15.5273 L 60.8398 -15.5273 C 57.8125 -15.5273 55.7129 -13.623 55.7129 -10.7422 C 55.7129 -7.91016 57.8125 -5.95703 60.8398 -5.95703 Z"/>
  </g>
  <g id="Medium-L" transform="matrix(1 0 0 1 1670.87 1556)">
   <path d="M 75.6836 29.1992 C 110.938 29.1992 140.088 0.0488281 140.088 -35.2051 C 140.088 -70.459 110.889 -99.6094 75.6348 -99.6094 C 40.3809 -99.6094 11.2793 -70.459 11.2793 -35.2051 C 11.2793 0.0488281 40.3809 29.1992 75.6836 29.1992 Z M 75.6836 18.0664 C 46.1426 18.0664 22.4609 -5.71289 22.4609 -35.2051 C 22.4609 -64.6973 46.1426 -88.4766 75.6348 -88.4766 C 105.127 -88.4766 128.906 -64.6973 128.906 -35.2051 C 128.955 -5.71289 105.176 18.0664 75.6836 18.0664 Z M 42.1387 -47.6074 L 109.326 -47.6074 C 112.061 -47.6074 114.014 -49.3652 114.014 -52.002 C 114.014 -54.6387 112.061 -56.3965 109.326 -56.3965 L 42.1387 -56.3965 C 39.3555 -56.3965 37.4023 -54.6387 37.4023 -52.002 C 37.4023 -49.3652 39.3555 -47.6074 42.1387 -47.6074 Z M 50.9277 -26.9531 L 100.488 -26.9531 C 103.223 -26.9531 105.176 -28.7109 105.176 -31.2988 C 105.176 -33.9355 103.223 -35.6934 100.488 -35.6934 L 50.9277 -35.6934 C 48.1934 -35.6934 46.2402 -33.9355 46.2402 -31.2988 C 46.2402 -28.7109 48.1934 -26.9531 50.9277 -26.9531 Z M 60.1074 -6.20117 L 91.3086 -6.20117 C 94.043 -6.20117 95.9961 -7.95898 95.9961 -10.5469 C 95.9961 -13.1836 94.043 -14.9414 91.3086 -14.9414 L 60.1074 -14.9414 C 57.373 -14.9414 55.4199 -13.1836 55.4199 -10.5469 C 55.4199 -7.95898 57.373 -6.20117 60.1074 -6.20117 Z"/>
  </g>
  <g id="Regular-L" transform="matrix(1 0 0 1 1374.97 1556)">
   <path d="M 74.8535 28.3691 C 109.668 28.3691 138.477 -0.390625 138.477 -35.2051 C 138.477 -70.0195 109.619 -98.7793 74.8047 -98.7793 C 40.0391 -98.7793 11.2793 -70.0195 11.2793 -35.2051 C 11.2793 -0.390625 40.0879 28.3691 74.8535 28.3691 Z M 74.8535 19.2871 C 44.6777 19.2871 20.4102 -5.0293 20.4102 -35.2051 C 20.4102 -65.3809 44.6289 -89.6973 74.8047 -89.6973 C 105.029 -89.6973 129.297 -65.3809 129.346 -35.2051 C 129.395 -5.0293 105.078 19.2871 74.8535 19.2871 Z M 40.1855 -48.2422 L 109.619 -48.2422 C 112.012 -48.2422 113.721 -49.7559 113.721 -52.0508 C 113.721 -54.3457 112.012 -55.9082 109.619 -55.9082 L 40.1855 -55.9082 C 37.793 -55.9082 36.084 -54.3457 36.084 -52.0508 C 36.084 -49.7559 37.793 -48.2422 40.1855 -48.2422 Z M 49.5117 -27.3926 L 100.342 -27.3926 C 102.734 -27.3926 104.443 -28.9551 104.443 -31.25 C 104.443 -33.5449 102.734 -35.0586 100.342 -35.0586 L 49.5117 -35.0586 C 47.0703 -35.0586 45.3613 -33.5449 45.3613 -31.25 C 45.3613 -28.9551 47.0703 -27.3926 49.5117 -27.3926 Z M 59.1797 -6.49414 L 90.6738 -6.49414 C 93.0176 -6.49414 94.7266 -8.00781 94.7266 -10.3516 C 94.7266 -12.6465 93.0176 -14.1602 90.6738 -14.1602 L 59.1797 -14.1602 C 56.7871 -14.1602 55.0781 -12.6465 55.0781 -10.3516 C 55.0781 -8.00781 56.7871 -6.49414 59.1797 -6.49414 Z"/>
  </g>
  <g id="Light-L" transform="matrix(1 0 0 1 1079.18 1556)">
   <path d="M 73.9258 27.4902 C 108.301 27.4902 136.621 -0.830078 136.621 -35.1562 C 136.621 -69.5312 108.252 -97.8516 73.9258 -97.8516 C 39.5508 -97.8516 11.2793 -69.5312 11.2793 -35.1562 C 11.2793 -0.830078 39.5996 27.4902 73.9258 27.4902 Z M 73.9258 20.6055 C 43.1152 20.6055 18.2129 -4.3457 18.2129 -35.1562 C 18.2129 -66.0156 43.0664 -90.918 73.9258 -90.918 C 104.736 -90.918 129.688 -66.0156 129.736 -35.1562 C 129.736 -4.3457 104.785 20.6055 73.9258 20.6055 Z M 38.8184 -49.4141 L 109.229 -49.4141 C 111.035 -49.4141 112.354 -50.6348 112.354 -52.4414 C 112.354 -54.248 111.035 -55.4199 109.229 -55.4199 L 38.8184 -55.4199 C 36.9629 -55.4199 35.5957 -54.248 35.5957 -52.4414 C 35.5957 -50.6348 36.9629 -49.4141 38.8184 -49.4141 Z M 47.998 -28.6621 L 100 -28.6621 C 101.807 -28.6621 103.174 -29.8828 103.174 -31.6406 C 103.174 -33.4473 101.807 -34.668 100 -34.668 L 47.998 -34.668 C 46.1426 -34.668 44.8242 -33.4473 44.8242 -31.6406 C 44.8242 -29.8828 46.1426 -28.6621 47.998 -28.6621 Z M 57.6172 -7.76367 L 90.3809 -7.76367 C 92.1875 -7.76367 93.5547 -8.93555 93.5547 -10.7422 C 93.5547 -12.5488 92.1875 -13.7695 90.3809 -13.7695 L 57.6172 -13.7695 C 55.7617 -13.7695 54.4434 -12.5488 54.4434 -10.7422 C 54.4434 -8.93555 55.7617 -7.76367 57.6172 -7.76367 Z"/>
  </g>
  <g id="Thin-L" transform="matrix(1 0 0 1 783.693 1556)">
   <path d="M 72.7051 26.3184 C 106.494 26.3184 134.18 -1.36719 134.18 -35.1074 C 134.18 -68.8965 106.494 -96.582 72.7051 -96.582 C 38.9648 -96.582 11.2793 -68.8965 11.2793 -35.1074 C 11.2793 -1.36719 38.9648 26.3184 72.7051 26.3184 Z M 72.7051 22.3145 C 41.0156 22.3145 15.2832 -3.41797 15.2832 -35.1074 C 15.2832 -66.8457 41.0156 -92.5781 72.7051 -92.5781 C 104.395 -92.5781 130.176 -66.8457 130.176 -35.1074 C 130.176 -3.41797 104.443 22.3145 72.7051 22.3145 Z M 36.9629 -51.0254 L 108.643 -51.0254 C 109.717 -51.0254 110.596 -51.7578 110.596 -52.9297 C 110.596 -54.0527 109.717 -54.834 108.643 -54.834 L 36.9629 -54.834 C 35.791 -54.834 34.9609 -54.0527 34.9609 -52.9297 C 34.9609 -51.7578 35.791 -51.0254 36.9629 -51.0254 Z M 46.0449 -30.3223 L 99.5605 -30.3223 C 100.635 -30.3223 101.465 -31.1035 101.465 -32.2266 C 101.465 -33.3496 100.635 -34.1309 99.5605 -34.1309 L 46.0449 -34.1309 C 44.9219 -34.1309 44.043 -33.3496 44.043 -32.2266 C 44.043 -31.1035 44.9219 -30.3223 46.0449 -30.3223 Z M 55.5664 -9.42383 L 90.0391 -9.42383 C 91.1133 -9.42383 91.9434 -10.1562 91.9434 -11.3281 C 91.9434 -12.4512 91.1133 -13.2324 90.0391 -13.2324 L 55.5664 -13.2324 C 54.3945 -13.2324 53.5645 -12.4512 53.5645 -11.3281 C 53.5645 -10.1562 54.3945 -9.42383 55.5664 -9.42383 Z"/>
  </g>
  <g id="Ultralight-L" transform="matrix(1 0 0 1 487.616 1556)">
   <path d="M 72.1191 25.7324 C 105.566 25.7324 132.91 -1.61133 132.91 -35.1074 C 132.91 -68.5547 105.566 -95.8984 72.1191 -95.8984 C 38.623 -95.8984 11.2793 -68.5547 11.2793 -35.1074 C 11.2793 -1.61133 38.623 25.7324 72.1191 25.7324 Z M 72.1191 23.2422 C 39.9414 23.2422 13.7695 -2.97852 13.7695 -35.1074 C 13.7695 -67.2363 39.9414 -93.4082 72.1191 -93.4082 C 104.248 -93.4082 130.42 -67.2363 130.42 -35.1074 C 130.42 -2.97852 104.248 23.2422 72.1191 23.2422 Z M 35.9863 -51.8066 L 108.35 -51.8066 C 109.082 -51.8066 109.668 -52.3438 109.668 -53.1738 C 109.668 -53.9551 109.082 -54.4922 108.35 -54.4922 L 35.9863 -54.4922 C 35.2051 -54.4922 34.6191 -53.9551 34.6191 -53.1738 C 34.6191 -52.3438 35.2051 -51.8066 35.9863 -51.8066 Z M 45.0684 -31.2012 L 99.3164 -31.2012 C 100 -31.2012 100.635 -31.6895 100.635 -32.5195 C 100.635 -33.3008 100 -33.8379 99.3164 -33.8379 L 45.0684 -33.8379 C 44.2871 -33.8379 43.6523 -33.3008 43.6523 -32.5195 C 43.6523 -31.6895 44.2871 -31.2012 45.0684 -31.2012 Z M 54.541 -10.2539 L 89.8438 -10.2539 C 90.5273 -10.2539 91.1621 -10.791 91.1621 -11.6211 C 91.1621 -12.4023 90.5273 -12.9395 89.8438 -12.9395 L 54.541 -12.9395 C 53.7109 -12.9395 53.125 -12.4023 53.125 -11.6211 C 53.125 -10.791 53.7109 -10.2539 54.541 -10.2539 Z"/>
  </g>
  <g id="Black-M" transform="matrix(1 0 0 1 2870.97 1126)">
   <path d="M 62.4023 18.457 C 91.9922 18.457 116.113 -5.61523 116.113 -35.2051 C 116.113 -64.7949 91.9922 -88.8672 62.4023 -88.8672 C 32.8125 -88.8672 8.74023 -64.7949 8.74023 -35.2051 C 8.74023 -5.61523 32.8125 18.457 62.4023 18.457 Z M 62.4023 0.195312 C 42.8711 0.195312 27.002 -15.625 27.002 -35.2051 C 27.002 -54.7363 42.8711 -70.6055 62.4023 -70.6055 C 81.9824 -70.6055 97.8027 -54.7363 97.8027 -35.2051 C 97.8027 -15.625 81.9824 0.195312 62.4023 0.195312 Z M 42.041 -42.334 L 82.7637 -42.334 C 86.5234 -42.334 89.0625 -44.6777 89.0625 -48.0957 C 89.0625 -51.6113 86.5234 -53.9551 82.7637 -53.9551 L 42.041 -53.9551 C 38.2812 -53.9551 35.791 -51.6113 35.791 -48.0957 C 35.791 -44.6777 38.2812 -42.334 42.041 -42.334 Z M 46.3867 -27.0996 L 78.418 -27.0996 C 82.1289 -27.0996 84.7168 -29.3945 84.7168 -32.8613 C 84.7168 -36.3281 82.1289 -38.7207 78.418 -38.7207 L 46.3867 -38.7207 C 42.7246 -38.7207 40.1367 -36.3281 40.1367 -32.8613 C 40.1367 -29.3945 42.7246 -27.0996 46.3867 -27.0996 Z M 50.7324 -11.8164 L 74.0723 -11.8164 C 77.7832 -11.8164 80.3711 -14.1602 80.3711 -17.627 C 80.3711 -21.0449 77.7832 -23.4375 74.0723 -23.4375 L 50.7324 -23.4375 C 47.0703 -23.4375 44.4824 -21.0449 44.4824 -17.627 C 44.4824 -14.1602 47.0703 -11.8164 50.7324 -11.8164 Z"/>
  </g>
  <g id="Heavy-M" transform="matrix(1 0 0 1 2575.19 1126)">
   <path d="M 61.5234 17.5781 C 90.5273 17.5781 114.258 -6.15234 114.258 -35.2051 C 114.258 -64.2578 90.5273 -87.9883 61.4746 -87.9883 C 32.4707 -87.9883 8.74023 -64.2578 8.74023 -35.2051 C 8.74023 -6.15234 32.4707 17.5781 61.5234 17.5781 Z M 61.5234 1.66016 C 41.1133 1.66016 24.6582 -14.8438 24.6582 -35.2051 C 24.6582 -55.5664 41.1133 -72.0703 61.4746 -72.0703 C 81.8848 -72.0703 98.3398 -55.5664 98.3398 -35.2051 C 98.3398 -14.8438 81.8848 1.66016 61.5234 1.66016 Z M 39.6484 -42.8711 L 83.3496 -42.8711 C 86.7188 -42.8711 89.0137 -44.9707 89.0137 -48.0957 C 89.0137 -51.2695 86.7188 -53.3691 83.3496 -53.3691 L 39.6484 -53.3691 C 36.2793 -53.3691 33.9844 -51.2695 33.9844 -48.0957 C 33.9844 -44.9707 36.2793 -42.8711 39.6484 -42.8711 Z M 44.7266 -27.3926 L 78.3203 -27.3926 C 81.6406 -27.3926 83.9844 -29.4922 83.9844 -32.6172 C 83.9844 -35.7422 81.6406 -37.8906 78.3203 -37.8906 L 44.7266 -37.8906 C 41.3574 -37.8906 39.0137 -35.7422 39.0137 -32.6172 C 39.0137 -29.4922 41.3574 -27.3926 44.7266 -27.3926 Z M 49.8047 -11.9141 L 73.1934 -11.9141 C 76.5625 -11.9141 78.8574 -14.0137 78.8574 -17.1387 C 78.8574 -20.2637 76.5625 -22.4121 73.1934 -22.4121 L 49.8047 -22.4121 C 46.4844 -22.4121 44.1406 -20.2637 44.1406 -17.1387 C 44.1406 -14.0137 46.4844 -11.9141 49.8047 -11.9141 Z"/>
  </g>
  <g id="Bold-M" transform="matrix(1 0 0 1 2279.5 1126)">
   <path d="M 60.498 16.5039 C 88.8672 16.5039 112.207 -6.78711 112.207 -35.2051 C 112.207 -63.623 88.8672 -86.9629 60.4492 -86.9629 C 32.0312 -86.9629 8.74023 -63.623 8.74023 -35.2051 C 8.74023 -6.78711 32.0801 16.5039 60.498 16.5039 Z M 60.498 3.22266 C 39.1602 3.22266 22.0703 -13.916 22.0703 -35.2051 C 22.0703 -56.4941 39.1602 -73.6816 60.4492 -73.6816 C 81.7383 -73.6816 98.9258 -56.4941 98.9258 -35.2051 C 98.9746 -13.916 81.7871 3.22266 60.498 3.22266 Z M 37.0117 -43.457 L 83.9844 -43.457 C 86.9629 -43.457 88.9648 -45.3125 88.9648 -48.0957 C 88.9648 -50.8789 86.9629 -52.7344 83.9844 -52.7344 L 37.0117 -52.7344 C 34.0332 -52.7344 32.0312 -50.8789 32.0312 -48.0957 C 32.0312 -45.3125 34.0332 -43.457 37.0117 -43.457 Z M 42.8223 -27.7832 L 78.2227 -27.7832 C 81.1035 -27.7832 83.2031 -29.6387 83.2031 -32.373 C 83.2031 -35.1562 81.1035 -37.0117 78.2227 -37.0117 L 42.8223 -37.0117 C 39.8438 -37.0117 37.793 -35.1562 37.793 -32.373 C 37.793 -29.6387 39.8438 -27.7832 42.8223 -27.7832 Z M 48.7305 -12.0605 L 72.2656 -12.0605 C 75.1953 -12.0605 77.2461 -13.916 77.2461 -16.6504 C 77.2461 -19.4336 75.1953 -21.2891 72.2656 -21.2891 L 48.7305 -21.2891 C 45.8008 -21.2891 43.75 -19.4336 43.75 -16.6504 C 43.75 -13.916 45.8008 -12.0605 48.7305 -12.0605 Z"/>
  </g>
  <g id="Semibold-M" transform="matrix(1 0 0 1 1983.5 1126)">
   <path d="M 59.7656 15.8203 C 87.7441 15.8203 110.791 -7.22656 110.791 -35.2051 C 110.791 -63.1836 87.6953 -86.2793 59.7656 -86.2793 C 31.7871 -86.2793 8.74023 -63.1836 8.74023 -35.2051 C 8.74023 -7.22656 31.7871 15.8203 59.7656 15.8203 Z M 59.7656 4.3457 C 37.8418 4.3457 20.2637 -13.2812 20.2637 -35.2051 C 20.2637 -57.1289 37.793 -74.8047 59.7656 -74.8047 C 81.6895 -74.8047 99.3164 -57.1289 99.3652 -35.2051 C 99.3652 -13.2812 81.6895 4.3457 59.7656 4.3457 Z M 35.1562 -43.8965 L 84.4238 -43.8965 C 87.1094 -43.8965 88.9648 -45.5566 88.9648 -48.0957 C 88.9648 -50.5859 87.1094 -52.2949 84.4238 -52.2949 L 35.1562 -52.2949 C 32.4707 -52.2949 30.6641 -50.5859 30.6641 -48.0957 C 30.6641 -45.5566 32.4707 -43.8965 35.1562 -43.8965 Z M 41.5039 -28.0273 L 78.125 -28.0273 C 80.7617 -28.0273 82.6172 -29.6875 82.6172 -32.1777 C 82.6172 -34.7168 80.7617 -36.4258 78.125 -36.4258 L 41.5039 -36.4258 C 38.8184 -36.4258 36.9629 -34.7168 36.9629 -32.1777 C 36.9629 -29.6875 38.8184 -28.0273 41.5039 -28.0273 Z M 47.998 -12.1094 L 71.582 -12.1094 C 74.2188 -12.1094 76.0742 -13.8184 76.0742 -16.3086 C 76.0742 -18.7988 74.2188 -20.5078 71.582 -20.5078 L 47.998 -20.5078 C 45.3613 -20.5078 43.5059 -18.7988 43.5059 -16.3086 C 43.5059 -13.8184 45.3613 -12.1094 47.998 -12.1094 Z"/>
  </g>
  <g id="Medium-M" transform="matrix(1 0 0 1 1687.3 1126)">
   <path d="M 59.2285 15.2832 C 86.9141 15.2832 109.766 -7.56836 109.766 -35.2051 C 109.766 -62.8906 86.8652 -85.7422 59.1797 -85.7422 C 31.543 -85.7422 8.74023 -62.8906 8.74023 -35.2051 C 8.74023 -7.56836 31.5918 15.2832 59.2285 15.2832 Z M 59.2285 5.17578 C 36.8164 5.17578 18.8965 -12.8418 18.8965 -35.2051 C 18.8965 -57.6172 36.8164 -75.6348 59.1797 -75.6348 C 81.5918 -75.6348 99.6094 -57.6172 99.6582 -35.2051 C 99.707 -12.8418 81.6406 5.17578 59.2285 5.17578 Z M 33.7891 -44.1895 L 84.7656 -44.1895 C 87.207 -44.1895 88.916 -45.752 88.916 -48.0469 C 88.916 -50.3906 87.207 -51.9531 84.7656 -51.9531 L 33.7891 -51.9531 C 31.2988 -51.9531 29.5898 -50.3906 29.5898 -48.0469 C 29.5898 -45.752 31.2988 -44.1895 33.7891 -44.1895 Z M 40.4785 -28.2227 L 78.0762 -28.2227 C 80.4688 -28.2227 82.2266 -29.7363 82.2266 -32.0801 C 82.2266 -34.375 80.4688 -35.9375 78.0762 -35.9375 L 40.4785 -35.9375 C 38.0371 -35.9375 36.3281 -34.375 36.3281 -32.0801 C 36.3281 -29.7363 38.0371 -28.2227 40.4785 -28.2227 Z M 47.4609 -12.1582 L 71.0938 -12.1582 C 73.5352 -12.1582 75.2441 -13.7207 75.2441 -16.0156 C 75.2441 -18.3594 73.5352 -19.9219 71.0938 -19.9219 L 47.4609 -19.9219 C 45.0195 -19.9219 43.3105 -18.3594 43.3105 -16.0156 C 43.3105 -13.7207 45.0195 -12.1582 47.4609 -12.1582 Z"/>
  </g>
  <g id="Regular-M" transform="matrix(1 0 0 1 1391.3 1126)">
   <path d="M 58.5449 14.5508 C 85.791 14.5508 108.35 -8.00781 108.35 -35.2539 C 108.35 -62.4512 85.7422 -85.0586 58.4961 -85.0586 C 31.2988 -85.0586 8.74023 -62.4512 8.74023 -35.2539 C 8.74023 -8.00781 31.3477 14.5508 58.5449 14.5508 Z M 58.5449 6.25 C 35.498 6.25 17.0898 -12.207 17.0898 -35.2539 C 17.0898 -58.252 35.4492 -76.7578 58.4961 -76.7578 C 81.543 -76.7578 100 -58.252 100.049 -35.2539 C 100.098 -12.207 81.5918 6.25 58.5449 6.25 Z M 31.9336 -44.6289 L 85.2051 -44.6289 C 87.3535 -44.6289 88.916 -45.9961 88.916 -48.0469 C 88.916 -50.1465 87.3535 -51.5137 85.2051 -51.5137 L 31.9336 -51.5137 C 29.7852 -51.5137 28.2715 -50.1465 28.2715 -48.0469 C 28.2715 -45.9961 29.7852 -44.6289 31.9336 -44.6289 Z M 39.209 -28.4668 L 77.9785 -28.4668 C 80.127 -28.4668 81.6406 -29.834 81.6406 -31.8848 C 81.6406 -33.9844 80.127 -35.3516 77.9785 -35.3516 L 39.209 -35.3516 C 37.0117 -35.3516 35.498 -33.9844 35.498 -31.8848 C 35.498 -29.834 37.0117 -28.4668 39.209 -28.4668 Z M 46.7285 -12.2559 L 70.4102 -12.2559 C 72.5586 -12.2559 74.1211 -13.623 74.1211 -15.6738 C 74.1211 -17.7734 72.5586 -19.1406 70.4102 -19.1406 L 46.7285 -19.1406 C 44.5801 -19.1406 43.0664 -17.7734 43.0664 -15.6738 C 43.0664 -13.623 44.5801 -12.2559 46.7285 -12.2559 Z"/>
  </g>
  <g id="Light-M" transform="matrix(1 0 0 1 1095.42 1126)">
   <path d="M 57.7148 13.7695 C 84.5215 13.7695 106.689 -8.39844 106.689 -35.2051 C 106.689 -62.0117 84.5215 -84.1797 57.666 -84.1797 C 30.8594 -84.1797 8.74023 -62.0117 8.74023 -35.2051 C 8.74023 -8.39844 30.9082 13.7695 57.7148 13.7695 Z M 57.7148 7.4707 C 34.082 7.4707 15.0879 -11.5723 15.0879 -35.2051 C 15.0879 -58.8379 34.082 -77.832 57.666 -77.832 C 81.2988 -77.832 100.342 -58.8379 100.391 -35.2051 C 100.391 -11.5723 81.3477 7.4707 57.7148 7.4707 Z M 30.7129 -45.7031 L 84.8145 -45.7031 C 86.4746 -45.7031 87.6953 -46.7773 87.6953 -48.3887 C 87.6953 -50 86.4746 -51.0742 84.8145 -51.0742 L 30.7129 -51.0742 C 29.0039 -51.0742 27.832 -50 27.832 -48.3887 C 27.832 -46.7773 29.0039 -45.7031 30.7129 -45.7031 Z M 37.8906 -29.5898 L 77.6367 -29.5898 C 79.2969 -29.5898 80.5176 -30.6641 80.5176 -32.2754 C 80.5176 -33.8867 79.2969 -34.9609 77.6367 -34.9609 L 37.8906 -34.9609 C 36.1816 -34.9609 34.9609 -33.8867 34.9609 -32.2754 C 34.9609 -30.6641 36.1816 -29.5898 37.8906 -29.5898 Z M 45.3613 -13.3789 L 70.166 -13.3789 C 71.8262 -13.3789 73.0469 -14.4531 73.0469 -16.0645 C 73.0469 -17.6758 71.8262 -18.75 70.166 -18.75 L 45.3613 -18.75 C 43.6523 -18.75 42.4805 -17.6758 42.4805 -16.0645 C 42.4805 -14.4531 43.6523 -13.3789 45.3613 -13.3789 Z"/>
  </g>
  <g id="Thin-M" transform="matrix(1 0 0 1 799.806 1126)">
   <path d="M 56.6406 12.7441 C 82.9102 12.7441 104.492 -8.83789 104.492 -35.1562 C 104.492 -61.4746 82.9102 -83.0566 56.5918 -83.0566 C 30.3223 -83.0566 8.74023 -61.4746 8.74023 -35.1562 C 8.74023 -8.83789 30.3223 12.7441 56.6406 12.7441 Z M 56.6406 8.98438 C 32.2266 8.98438 12.4512 -10.791 12.4512 -35.1562 C 12.4512 -59.5215 32.2266 -79.2969 56.5918 -79.2969 C 81.0059 -79.2969 100.781 -59.5215 100.781 -35.1562 C 100.781 -10.791 81.0059 8.98438 56.6406 8.98438 Z M 29.0527 -47.1191 L 84.3262 -47.1191 C 85.3027 -47.1191 86.084 -47.8027 86.084 -48.8281 C 86.084 -49.8535 85.3027 -50.5371 84.3262 -50.5371 L 29.0527 -50.5371 C 27.9785 -50.5371 27.1973 -49.8535 27.1973 -48.8281 C 27.1973 -47.8027 27.9785 -47.1191 29.0527 -47.1191 Z M 36.1328 -31.0547 L 77.2461 -31.0547 C 78.2227 -31.0547 79.0039 -31.7383 79.0039 -32.7637 C 79.0039 -33.7891 78.2227 -34.4727 77.2461 -34.4727 L 36.1328 -34.4727 C 35.0586 -34.4727 34.2773 -33.7891 34.2773 -32.7637 C 34.2773 -31.7383 35.0586 -31.0547 36.1328 -31.0547 Z M 43.5059 -14.8438 L 69.8242 -14.8438 C 70.8496 -14.8438 71.6309 -15.5273 71.6309 -16.5527 C 71.6309 -17.5781 70.8496 -18.2617 69.8242 -18.2617 L 43.5059 -18.2617 C 42.4805 -18.2617 41.6992 -17.5781 41.6992 -16.5527 C 41.6992 -15.5273 42.4805 -14.8438 43.5059 -14.8438 Z"/>
  </g>
  <g id="Ultralight-M" transform="matrix(1 0 0 1 503.656 1126)">
   <path d="M 56.0547 12.207 C 82.0801 12.207 103.369 -9.08203 103.369 -35.1562 C 103.369 -61.1816 82.0801 -82.4707 56.0547 -82.4707 C 30.0293 -82.4707 8.74023 -61.1816 8.74023 -35.1562 C 8.74023 -9.08203 30.0293 12.207 56.0547 12.207 Z M 56.0547 9.81445 C 31.2988 9.81445 11.1328 -10.3516 11.1328 -35.1562 C 11.1328 -59.9121 31.2988 -80.0781 56.0547 -80.0781 C 80.8594 -80.0781 100.977 -59.9121 100.977 -35.1562 C 100.977 -10.3516 80.8594 9.81445 56.0547 9.81445 Z M 28.1738 -47.8516 L 84.082 -47.8516 C 84.7168 -47.8516 85.2539 -48.3398 85.2539 -49.0723 C 85.2539 -49.7559 84.7168 -50.2441 84.082 -50.2441 L 28.1738 -50.2441 C 27.4414 -50.2441 26.9043 -49.7559 26.9043 -49.0723 C 26.9043 -48.3398 27.4414 -47.8516 28.1738 -47.8516 Z M 35.2051 -31.8359 L 77.0508 -31.8359 C 77.6855 -31.8359 78.2227 -32.3242 78.2227 -33.0566 C 78.2227 -33.7402 77.6855 -34.2285 77.0508 -34.2285 L 35.2051 -34.2285 C 34.4727 -34.2285 33.9355 -33.7402 33.9355 -33.0566 C 33.9355 -32.3242 34.4727 -31.8359 35.2051 -31.8359 Z M 42.5781 -15.625 L 69.6777 -15.625 C 70.3613 -15.625 70.8984 -16.1133 70.8984 -16.8457 C 70.8984 -17.5781 70.3613 -18.0176 69.6777 -18.0176 L 42.5781 -18.0176 C 41.8457 -18.0176 41.3086 -17.5781 41.3086 -16.8457 C 41.3086 -16.1133 41.8457 -15.625 42.5781 -15.625 Z"/>
  </g>
  <g id="Black-S" transform="matrix(1 0 0 1 2884.57 696)">
   <path d="M 48.8281 6.78711 C 71.9727 6.78711 90.8203 -12.0605 90.8203 -35.2051 C 90.8203 -58.3496 71.9727 -77.1973 48.8281 -77.1973 C 25.6836 -77.1973 6.83594 -58.3496 6.83594 -35.2051 C 6.83594 -12.0605 25.6836 6.78711 48.8281 6.78711 Z M 48.8281 -7.37305 C 33.4473 -7.37305 20.9961 -19.8242 20.9961 -35.2051 C 20.9961 -50.5859 33.4473 -63.0371 48.8281 -63.0371 C 64.209 -63.0371 76.6602 -50.5859 76.6602 -35.2051 C 76.6602 -19.8242 64.209 -7.37305 48.8281 -7.37305 Z M 32.7637 -40.8203 L 64.8926 -40.8203 C 67.8223 -40.8203 69.7754 -42.627 69.7754 -45.3125 C 69.7754 -48.0469 67.8223 -49.8535 64.8926 -49.8535 L 32.7637 -49.8535 C 29.834 -49.8535 27.8809 -48.0469 27.8809 -45.3125 C 27.8809 -42.627 29.834 -40.8203 32.7637 -40.8203 Z M 36.2305 -28.8574 L 61.4258 -28.8574 C 64.3066 -28.8574 66.3086 -30.6641 66.3086 -33.3496 C 66.3086 -36.0352 64.3066 -37.8906 61.4258 -37.8906 L 36.2305 -37.8906 C 33.3496 -37.8906 31.3477 -36.0352 31.3477 -33.3496 C 31.3477 -30.6641 33.3496 -28.8574 36.2305 -28.8574 Z M 39.6973 -16.8945 L 57.959 -16.8945 C 60.8398 -16.8945 62.8418 -18.7012 62.8418 -21.3867 C 62.8418 -24.0723 60.8398 -25.9277 57.959 -25.9277 L 39.6973 -25.9277 C 36.8164 -25.9277 34.8145 -24.0723 34.8145 -21.3867 C 34.8145 -18.7012 36.8164 -16.8945 39.6973 -16.8945 Z"/>
  </g>
  <g id="Heavy-S" transform="matrix(1 0 0 1 2588.47 696)">
   <path d="M 48.2422 6.15234 C 70.9961 6.15234 89.5996 -12.4512 89.5996 -35.2051 C 89.5996 -57.959 70.9961 -76.6113 48.1934 -76.6113 C 25.4395 -76.6113 6.83594 -57.959 6.83594 -35.2051 C 6.83594 -12.4512 25.4395 6.15234 48.2422 6.15234 Z M 48.2422 -6.39648 C 32.2754 -6.39648 19.4336 -19.2871 19.4336 -35.2051 C 19.4336 -51.1719 32.2754 -64.0137 48.1934 -64.0137 C 64.1602 -64.0137 77.002 -51.1719 77.0508 -35.2051 C 77.0508 -19.2871 64.1602 -6.39648 48.2422 -6.39648 Z M 31.1035 -41.1133 L 65.3809 -41.1133 C 68.0664 -41.1133 69.873 -42.7734 69.873 -45.2637 C 69.873 -47.8027 68.0664 -49.4629 65.3809 -49.4629 L 31.1035 -49.4629 C 28.3691 -49.4629 26.5625 -47.8027 26.5625 -45.2637 C 26.5625 -42.7734 28.3691 -41.1133 31.1035 -41.1133 Z M 35.0586 -28.9551 L 61.377 -28.9551 C 64.0137 -28.9551 65.8691 -30.6641 65.8691 -33.1543 C 65.8691 -35.5957 64.0137 -37.3047 61.377 -37.3047 L 35.0586 -37.3047 C 32.4219 -37.3047 30.5664 -35.5957 30.5664 -33.1543 C 30.5664 -30.6641 32.4219 -28.9551 35.0586 -28.9551 Z M 39.1113 -16.8457 L 57.3242 -16.8457 C 59.9609 -16.8457 61.8164 -18.5059 61.8164 -20.9961 C 61.8164 -23.4863 59.9609 -25.1953 57.3242 -25.1953 L 39.1113 -25.1953 C 36.4746 -25.1953 34.6191 -23.4863 34.6191 -20.9961 C 34.6191 -18.5059 36.4746 -16.8457 39.1113 -16.8457 Z"/>
  </g>
  <g id="Bold-S" transform="matrix(1 0 0 1 2292.44 696)">
   <path d="M 47.5586 5.46875 C 69.873 5.46875 88.2324 -12.8906 88.2324 -35.2051 C 88.2324 -57.5684 69.873 -75.9277 47.5098 -75.9277 C 25.1953 -75.9277 6.83594 -57.5684 6.83594 -35.2051 C 6.83594 -12.8906 25.1953 5.46875 47.5586 5.46875 Z M 47.5586 -5.32227 C 30.957 -5.32227 17.6758 -18.6523 17.6758 -35.2051 C 17.6758 -51.8066 30.957 -65.1367 47.5098 -65.1367 C 64.1113 -65.1367 77.4414 -51.8066 77.4414 -35.2051 C 77.4414 -18.6523 64.1113 -5.32227 47.5586 -5.32227 Z M 29.1992 -41.4551 L 65.918 -41.4551 C 68.3594 -41.4551 70.0195 -42.9688 70.0195 -45.2148 C 70.0195 -47.5098 68.3594 -49.0234 65.918 -49.0234 L 29.1992 -49.0234 C 26.7578 -49.0234 25.0977 -47.5098 25.0977 -45.2148 C 25.0977 -42.9688 26.7578 -41.4551 29.1992 -41.4551 Z M 33.7891 -29.1016 L 61.3281 -29.1016 C 63.7207 -29.1016 65.4297 -30.6152 65.4297 -32.9102 C 65.4297 -35.1562 63.7207 -36.6699 61.3281 -36.6699 L 33.7891 -36.6699 C 31.3965 -36.6699 29.6875 -35.1562 29.6875 -32.9102 C 29.6875 -30.6152 31.3965 -29.1016 33.7891 -29.1016 Z M 38.4766 -16.7969 L 56.6406 -16.7969 C 59.0332 -16.7969 60.6934 -18.3105 60.6934 -20.5566 C 60.6934 -22.8027 59.0332 -24.3652 56.6406 -24.3652 L 38.4766 -24.3652 C 36.084 -24.3652 34.4238 -22.8027 34.4238 -20.5566 C 34.4238 -18.3105 36.084 -16.7969 38.4766 -16.7969 Z"/>
  </g>
  <g id="Semibold-S" transform="matrix(1 0 0 1 1996.2 696)">
   <path d="M 47.0703 4.98047 C 69.0918 4.98047 87.3047 -13.1836 87.3047 -35.2539 C 87.3047 -57.2754 69.0918 -75.4883 47.0215 -75.4883 C 25 -75.4883 6.83594 -57.2754 6.83594 -35.2539 C 6.83594 -13.1836 25.0488 4.98047 47.0703 4.98047 Z M 47.0703 -4.58984 C 30.0781 -4.58984 16.4551 -18.2129 16.4551 -35.2539 C 16.4551 -52.2461 30.0293 -65.8691 47.0215 -65.8691 C 64.0625 -65.8691 77.6855 -52.2461 77.7344 -35.2539 C 77.7344 -18.2129 64.0625 -4.58984 47.0703 -4.58984 Z M 27.8809 -41.6504 L 66.3086 -41.6504 C 68.5059 -41.6504 70.0684 -43.0664 70.0684 -45.166 C 70.0684 -47.3145 68.5059 -48.7305 66.3086 -48.7305 L 27.8809 -48.7305 C 25.6348 -48.7305 24.1211 -47.3145 24.1211 -45.166 C 24.1211 -43.0664 25.6348 -41.6504 27.8809 -41.6504 Z M 32.9102 -29.1992 L 61.2793 -29.1992 C 63.5254 -29.1992 65.0879 -30.6152 65.0879 -32.7148 C 65.0879 -34.8145 63.5254 -36.2305 61.2793 -36.2305 L 32.9102 -36.2305 C 30.6641 -36.2305 29.1016 -34.8145 29.1016 -32.7148 C 29.1016 -30.6152 30.6641 -29.1992 32.9102 -29.1992 Z M 38.0371 -16.748 L 56.1523 -16.748 C 58.3496 -16.748 59.9121 -18.1641 59.9121 -20.2637 C 59.9121 -22.3633 58.3496 -23.7793 56.1523 -23.7793 L 38.0371 -23.7793 C 35.8398 -23.7793 34.2773 -22.3633 34.2773 -20.2637 C 34.2773 -18.1641 35.8398 -16.748 38.0371 -16.748 Z"/>
  </g>
  <g id="Medium-S" transform="matrix(1 0 0 1 1699.83 696)">
   <path d="M 46.7285 4.63867 C 68.5547 4.63867 86.6211 -13.4277 86.6211 -35.2539 C 86.6211 -57.0312 68.5059 -75.1465 46.6797 -75.1465 C 24.8535 -75.1465 6.83594 -57.0312 6.83594 -35.2539 C 6.83594 -13.4277 24.9023 4.63867 46.7285 4.63867 Z M 46.7285 -4.00391 C 29.3945 -4.00391 15.5273 -17.9199 15.5273 -35.2539 C 15.5273 -52.5879 29.3457 -66.4551 46.6797 -66.4551 C 64.0137 -66.4551 77.8809 -52.5879 77.9297 -35.2539 C 77.9785 -17.9199 64.0625 -4.00391 46.7285 -4.00391 Z M 26.9043 -41.8457 L 66.5527 -41.8457 C 68.6523 -41.8457 70.166 -43.1641 70.166 -45.166 C 70.166 -47.168 68.6523 -48.4863 66.5527 -48.4863 L 26.9043 -48.4863 C 24.8047 -48.4863 23.3398 -47.168 23.3398 -45.166 C 23.3398 -43.1641 24.8047 -41.8457 26.9043 -41.8457 Z M 32.2266 -29.2969 L 61.2793 -29.2969 C 63.3789 -29.2969 64.8438 -30.6152 64.8438 -32.6172 C 64.8438 -34.5703 63.3789 -35.9375 61.2793 -35.9375 L 32.2266 -35.9375 C 30.127 -35.9375 28.6621 -34.5703 28.6621 -32.6172 C 28.6621 -30.6152 30.127 -29.2969 32.2266 -29.2969 Z M 37.6953 -16.6992 L 55.7617 -16.6992 C 57.8613 -16.6992 59.3262 -18.0664 59.3262 -20.0195 C 59.3262 -22.0215 57.8613 -23.3398 55.7617 -23.3398 L 37.6953 -23.3398 C 35.5957 -23.3398 34.1309 -22.0215 34.1309 -20.0195 C 34.1309 -18.0664 35.5957 -16.6992 37.6953 -16.6992 Z"/>
  </g>
  <g id="Regular-S" transform="matrix(1 0 0 1 1403.58 696)">
   <path d="M 46.2402 4.15039 C 67.7734 4.15039 85.6934 -13.7207 85.6934 -35.2539 C 85.6934 -56.7871 67.7246 -74.6582 46.1914 -74.6582 C 24.707 -74.6582 6.83594 -56.7871 6.83594 -35.2539 C 6.83594 -13.7207 24.7559 4.15039 46.2402 4.15039 Z M 46.2402 -3.27148 C 28.5156 -3.27148 14.3555 -17.4805 14.3555 -35.2539 C 14.3555 -53.0273 28.4668 -67.2363 46.1914 -67.2363 C 63.9648 -67.2363 78.1738 -53.0273 78.2227 -35.2539 C 78.2715 -17.4805 64.0137 -3.27148 46.2402 -3.27148 Z M 25.6348 -42.041 L 66.9434 -42.041 C 68.8477 -42.041 70.2148 -43.2617 70.2148 -45.1172 C 70.2148 -46.9727 68.8477 -48.1934 66.9434 -48.1934 L 25.6348 -48.1934 C 23.7305 -48.1934 22.3633 -46.9727 22.3633 -45.1172 C 22.3633 -43.2617 23.7305 -42.041 25.6348 -42.041 Z M 31.3477 -29.3945 L 61.2305 -29.3945 C 63.1348 -29.3945 64.502 -30.6152 64.502 -32.4219 C 64.502 -34.2773 63.1348 -35.498 61.2305 -35.498 L 31.3477 -35.498 C 29.3945 -35.498 28.0273 -34.2773 28.0273 -32.4219 C 28.0273 -30.6152 29.3945 -29.3945 31.3477 -29.3945 Z M 37.3047 -16.6992 L 55.2734 -16.6992 C 57.2266 -16.6992 58.5938 -17.9199 58.5938 -19.7266 C 58.5938 -21.582 57.2266 -22.8027 55.2734 -22.8027 L 37.3047 -22.8027 C 35.3516 -22.8027 33.9844 -21.582 33.9844 -19.7266 C 33.9844 -17.9199 35.3516 -16.6992 37.3047 -16.6992 Z"/>
  </g>
  <g id="Light-S" transform="matrix(1 0 0 1 1107.6 696)">
   <path d="M 45.5078 3.4668 C 66.6992 3.4668 84.2285 -14.0625 84.2285 -35.2051 C 84.2285 -56.3965 66.6504 -73.9258 45.5078 -73.9258 C 24.3164 -73.9258 6.83594 -56.3965 6.83594 -35.2051 C 6.83594 -14.0625 24.3652 3.4668 45.5078 3.4668 Z M 45.5078 -2.24609 C 27.2461 -2.24609 12.5977 -16.9434 12.5977 -35.2051 C 12.5977 -53.5156 27.1973 -68.2129 45.5078 -68.2129 C 63.7695 -68.2129 78.4668 -53.5156 78.5156 -35.2051 C 78.5156 -16.9434 63.8184 -2.24609 45.5078 -2.24609 Z M 24.5117 -43.0176 L 66.6016 -43.0176 C 68.0664 -43.0176 69.1406 -43.9941 69.1406 -45.4102 C 69.1406 -46.875 68.0664 -47.8027 66.6016 -47.8027 L 24.5117 -47.8027 C 22.998 -47.8027 21.9238 -46.875 21.9238 -45.4102 C 21.9238 -43.9941 22.998 -43.0176 24.5117 -43.0176 Z M 30.1758 -30.3711 L 60.9375 -30.3711 C 62.4512 -30.3711 63.5254 -31.3477 63.5254 -32.7637 C 63.5254 -34.2285 62.4512 -35.1562 60.9375 -35.1562 L 30.1758 -35.1562 C 28.6621 -35.1562 27.5879 -34.2285 27.5879 -32.7637 C 27.5879 -31.3477 28.6621 -30.3711 30.1758 -30.3711 Z M 36.0352 -17.6758 L 55.0781 -17.6758 C 56.543 -17.6758 57.6172 -18.6523 57.6172 -20.0684 C 57.6172 -21.5332 56.543 -22.4609 55.0781 -22.4609 L 36.0352 -22.4609 C 34.5703 -22.4609 33.4961 -21.5332 33.4961 -20.0684 C 33.4961 -18.6523 34.5703 -17.6758 36.0352 -17.6758 Z"/>
  </g>
  <g id="Thin-S" transform="matrix(1 0 0 1 811.867 696)">
   <path d="M 44.5801 2.53906 C 65.2832 2.53906 82.2754 -14.4531 82.2754 -35.2051 C 82.2754 -55.9082 65.2344 -72.9004 44.5312 -72.9004 C 23.8281 -72.9004 6.83594 -55.9082 6.83594 -35.2051 C 6.83594 -14.4531 23.877 2.53906 44.5801 2.53906 Z M 44.5801 -0.878906 C 25.5859 -0.878906 10.2539 -16.2109 10.2539 -35.2051 C 10.2539 -54.1504 25.5859 -69.4824 44.5312 -69.4824 C 63.5254 -69.4824 78.8574 -54.1504 78.8574 -35.2051 C 78.8574 -16.2109 63.5254 -0.878906 44.5801 -0.878906 Z M 23.0469 -44.2871 L 66.1621 -44.2871 C 67.041 -44.2871 67.7246 -44.873 67.7246 -45.8008 C 67.7246 -46.7285 67.041 -47.3145 66.1621 -47.3145 L 23.0469 -47.3145 C 22.1191 -47.3145 21.4355 -46.7285 21.4355 -45.8008 C 21.4355 -44.873 22.1191 -44.2871 23.0469 -44.2871 Z M 28.6133 -31.6895 L 60.5957 -31.6895 C 61.4746 -31.6895 62.1582 -32.2754 62.1582 -33.2031 C 62.1582 -34.1309 61.4746 -34.7656 60.5957 -34.7656 L 28.6133 -34.7656 C 27.6855 -34.7656 27.002 -34.1309 27.002 -33.2031 C 27.002 -32.2754 27.6855 -31.6895 28.6133 -31.6895 Z M 34.4238 -18.9941 L 54.7852 -18.9941 C 55.6641 -18.9941 56.3477 -19.5801 56.3477 -20.5078 C 56.3477 -21.4355 55.6641 -22.0703 54.7852 -22.0703 L 34.4238 -22.0703 C 33.4961 -22.0703 32.8125 -21.4355 32.8125 -20.5078 C 32.8125 -19.5801 33.4961 -18.9941 34.4238 -18.9941 Z"/>
  </g>
  <g id="Ultralight-S" transform="matrix(1 0 0 1 515.644 696)">
   <path d="M 44.043 2.05078 C 64.502 2.05078 81.2988 -14.6973 81.2988 -35.1562 C 81.2988 -55.6152 64.502 -72.3633 44.043 -72.3633 C 23.584 -72.3633 6.83594 -55.6152 6.83594 -35.1562 C 6.83594 -14.6973 23.584 2.05078 44.043 2.05078 Z M 44.043 -0.146484 C 24.7559 -0.146484 9.08203 -15.8691 9.08203 -35.1562 C 9.08203 -54.4434 24.7559 -70.166 44.043 -70.166 C 63.3789 -70.166 79.0527 -54.4434 79.0527 -35.1562 C 79.0527 -15.8691 63.3789 -0.146484 44.043 -0.146484 Z M 22.3145 -44.9219 L 65.918 -44.9219 C 66.5039 -44.9219 66.9922 -45.3613 66.9922 -45.9961 C 66.9922 -46.6309 66.5039 -47.0703 65.918 -47.0703 L 22.3145 -47.0703 C 21.6309 -47.0703 21.1426 -46.6309 21.1426 -45.9961 C 21.1426 -45.3613 21.6309 -44.9219 22.3145 -44.9219 Z M 27.832 -32.373 L 60.4004 -32.373 C 60.9863 -32.373 61.4746 -32.8125 61.4746 -33.4473 C 61.4746 -34.082 60.9863 -34.5215 60.4004 -34.5215 L 27.832 -34.5215 C 27.1484 -34.5215 26.6602 -34.082 26.6602 -33.4473 C 26.6602 -32.8125 27.1484 -32.373 27.832 -32.373 Z M 33.5938 -19.6777 L 54.6387 -19.6777 C 55.2246 -19.6777 55.7129 -20.1172 55.7129 -20.752 C 55.7129 -21.3867 55.2246 -21.8262 54.6387 -21.8262 L 33.5938 -21.8262 C 32.959 -21.8262 32.4707 -21.3867 32.4707 -20.752 C 32.4707 -20.1172 32.959 -19.6777 33.5938 -19.6777 Z"/>
  </g>
 </g>
</svg>
